<svg width="1024" height="753" viewBox="0 0 1024 753" fill="none" xmlns="http://www.w3.org/2000/svg">
<g clip-path="url(#clip0_122_130)">
<rect width="1024" height="753" fill="#121214"/>
<g opacity="0.2" filter="url(#filter0_f_122_130)">
<ellipse cx="581.5" cy="35" rx="670.5" ry="350" fill="#35875D"/>
</g>
<path d="M102.035 271C103.53 271 104.662 271.63 105.431 272.891C106.213 274.138 106.605 275.953 106.605 278.336C106.605 280.719 106.213 282.541 105.431 283.802C104.662 285.063 103.53 285.693 102.035 285.693C100.554 285.693 99.4216 285.063 98.639 283.802C97.8564 282.541 97.4651 280.719 97.4651 278.336C97.4651 275.967 97.8564 274.152 98.639 272.891C99.4216 271.63 100.554 271 102.035 271ZM98.9534 278.336C98.9534 280.026 99.1072 281.35 99.4146 282.306L104.068 273.099C103.579 272.448 102.901 272.122 102.035 272.122C101.071 272.122 100.316 272.635 99.771 273.66C99.2259 274.672 98.9534 276.23 98.9534 278.336ZM102.035 284.55C103.013 284.55 103.775 284.044 104.32 283.033C104.865 282.008 105.137 280.442 105.137 278.336C105.137 276.549 104.963 275.163 104.613 274.18L99.9596 283.469C100.463 284.19 101.154 284.55 102.035 284.55Z" fill="url(#paint0_linear_122_130)" fill-opacity="0.6"/>
<path d="M103.293 308.135H106.374V309.236H98.3874V308.135H101.951V296.455L98.5551 298.471L97.9682 297.536L102.161 294.959H103.293V308.135Z" fill="url(#paint1_linear_122_130)" fill-opacity="0.6"/>
<path d="M102.035 318.502C103.53 318.502 104.662 319.133 105.431 320.393C106.213 321.64 106.605 323.455 106.605 325.838C106.605 328.221 106.213 330.043 105.431 331.304C104.662 332.565 103.53 333.195 102.035 333.195C100.554 333.195 99.4216 332.565 98.639 331.304C97.8564 330.043 97.4651 328.221 97.4651 325.838C97.4651 323.469 97.8564 321.654 98.639 320.393C99.4216 319.133 100.554 318.502 102.035 318.502ZM98.9534 325.838C98.9534 327.529 99.1072 328.852 99.4146 329.808L104.068 320.601C103.579 319.95 102.901 319.624 102.035 319.624C101.071 319.624 100.316 320.137 99.771 321.162C99.2259 322.174 98.9534 323.732 98.9534 325.838ZM102.035 332.052C103.013 332.052 103.775 331.546 104.32 330.535C104.865 329.51 105.137 327.944 105.137 325.838C105.137 324.051 104.963 322.665 104.613 321.682L99.9596 330.971C100.463 331.692 101.154 332.052 102.035 332.052Z" fill="url(#paint2_linear_122_130)" fill-opacity="0.6"/>
<path d="M103.293 355.637H106.374V356.738H98.3874V355.637H101.951V343.957L98.5551 345.973L97.9682 345.038L102.161 342.461H103.293V355.637Z" fill="url(#paint3_linear_122_130)" fill-opacity="0.6"/>
<path d="M103.293 379.388H106.374V380.489H98.3874V379.388H101.951V367.708L98.5551 369.724L97.9682 368.789L102.161 366.212H103.293V379.388Z" fill="url(#paint4_linear_122_130)" fill-opacity="0.6"/>
<path d="M102.035 389.755C103.53 389.755 104.662 390.386 105.431 391.646C106.213 392.893 106.605 394.708 106.605 397.091C106.605 399.474 106.213 401.296 105.431 402.557C104.662 403.818 103.53 404.448 102.035 404.448C100.554 404.448 99.4216 403.818 98.639 402.557C97.8564 401.296 97.4651 399.474 97.4651 397.091C97.4651 394.722 97.8564 392.907 98.639 391.646C99.4216 390.386 100.554 389.755 102.035 389.755ZM98.9534 397.091C98.9534 398.782 99.1072 400.105 99.4146 401.061L104.068 391.854C103.579 391.203 102.901 390.878 102.035 390.878C101.071 390.878 100.316 391.39 99.771 392.415C99.2259 393.427 98.9534 394.985 98.9534 397.091ZM102.035 403.305C103.013 403.305 103.775 402.8 104.32 401.788C104.865 400.763 105.137 399.197 105.137 397.091C105.137 395.304 104.963 393.919 104.613 392.935L99.9596 402.225C100.463 402.945 101.154 403.305 102.035 403.305Z" fill="url(#paint5_linear_122_130)" fill-opacity="0.6"/>
<path d="M103.293 426.89H106.374V427.992H98.3874V426.89H101.951V415.21L98.5551 417.226L97.9682 416.291L102.161 413.714H103.293V426.89Z" fill="url(#paint6_linear_122_130)" fill-opacity="0.6"/>
<path d="M102.035 437.257C103.53 437.257 104.662 437.888 105.431 439.149C106.213 440.396 106.605 442.211 106.605 444.594C106.605 446.977 106.213 448.798 105.431 450.059C104.662 451.32 103.53 451.95 102.035 451.95C100.554 451.95 99.4216 451.32 98.639 450.059C97.8564 448.798 97.4651 446.977 97.4651 444.594C97.4651 442.224 97.8564 440.409 98.639 439.149C99.4216 437.888 100.554 437.257 102.035 437.257ZM98.9534 444.594C98.9534 446.284 99.1072 447.607 99.4146 448.563L104.068 439.356C103.579 438.705 102.901 438.38 102.035 438.38C101.071 438.38 100.316 438.892 99.771 439.918C99.2259 440.929 98.9534 442.488 98.9534 444.594ZM102.035 450.807C103.013 450.807 103.775 450.302 104.32 449.29C104.865 448.265 105.137 446.699 105.137 444.594C105.137 442.806 104.963 441.421 104.613 440.437L99.9596 449.727C100.463 450.447 101.154 450.807 102.035 450.807Z" fill="url(#paint7_linear_122_130)" fill-opacity="0.6"/>
<path d="M102.035 461.008C103.53 461.008 104.662 461.639 105.431 462.9C106.213 464.147 106.605 465.962 106.605 468.345C106.605 470.728 106.213 472.549 105.431 473.81C104.662 475.071 103.53 475.701 102.035 475.701C100.554 475.701 99.4216 475.071 98.639 473.81C97.8564 472.549 97.4651 470.728 97.4651 468.345C97.4651 465.975 97.8564 464.16 98.639 462.9C99.4216 461.639 100.554 461.008 102.035 461.008ZM98.9534 468.345C98.9534 470.035 99.1072 471.358 99.4146 472.314L104.068 463.107C103.579 462.456 102.901 462.131 102.035 462.131C101.071 462.131 100.316 462.643 99.771 463.669C99.2259 464.68 98.9534 466.239 98.9534 468.345ZM102.035 474.558C103.013 474.558 103.775 474.053 104.32 473.041C104.865 472.016 105.137 470.451 105.137 468.345C105.137 466.557 104.963 465.172 104.613 464.188L99.9596 473.478C100.463 474.198 101.154 474.558 102.035 474.558Z" fill="url(#paint8_linear_122_130)" fill-opacity="0.6"/>
<path d="M103.293 498.143H106.374V499.245H98.3874V498.143H101.951V486.464L98.5551 488.48L97.9682 487.544L102.161 484.967H103.293V498.143Z" fill="url(#paint9_linear_122_130)" fill-opacity="0.6"/>
<path d="M102.035 508.511C103.53 508.511 104.662 509.141 105.431 510.402C106.213 511.649 106.605 513.464 106.605 515.847C106.605 518.23 106.213 520.052 105.431 521.312C104.662 522.573 103.53 523.204 102.035 523.204C100.554 523.204 99.4216 522.573 98.639 521.312C97.8564 520.052 97.4651 518.23 97.4651 515.847C97.4651 513.478 97.8564 511.663 98.639 510.402C99.4216 509.141 100.554 508.511 102.035 508.511ZM98.9534 515.847C98.9534 517.537 99.1072 518.86 99.4146 519.816L104.068 510.61C103.579 509.958 102.901 509.633 102.035 509.633C101.071 509.633 100.316 510.145 99.771 511.171C99.2259 512.182 98.9534 513.741 98.9534 515.847ZM102.035 522.061C103.013 522.061 103.775 521.555 104.32 520.543C104.865 519.518 105.137 517.953 105.137 515.847C105.137 514.059 104.963 512.674 104.613 511.69L99.9596 520.98C100.463 521.7 101.154 522.061 102.035 522.061Z" fill="url(#paint10_linear_122_130)" fill-opacity="0.6"/>
<path d="M103.293 545.645H106.374V546.747H98.3874V545.645H101.951V533.966L98.5551 535.982L97.9682 535.046L102.161 532.469H103.293V545.645Z" fill="url(#paint11_linear_122_130)" fill-opacity="0.6"/>
<path d="M103.293 569.396H106.374V570.498H98.3874V569.396H101.951V557.717L98.5551 559.733L97.9682 558.798L102.161 556.221H103.293V569.396Z" fill="url(#paint12_linear_122_130)" fill-opacity="0.6"/>
<path d="M140.965 318.502C142.46 318.502 143.592 319.133 144.361 320.393C145.144 321.64 145.535 323.455 145.535 325.838C145.535 328.221 145.144 330.043 144.361 331.304C143.592 332.565 142.46 333.195 140.965 333.195C139.484 333.195 138.352 332.565 137.569 331.304C136.787 330.043 136.395 328.221 136.395 325.838C136.395 323.469 136.787 321.654 137.569 320.393C138.352 319.133 139.484 318.502 140.965 318.502ZM137.884 325.838C137.884 327.529 138.037 328.852 138.345 329.808L142.998 320.601C142.509 319.95 141.832 319.624 140.965 319.624C140.001 319.624 139.246 320.137 138.701 321.162C138.156 322.174 137.884 323.732 137.884 325.838ZM140.965 332.052C141.943 332.052 142.705 331.546 143.25 330.535C143.795 329.51 144.068 327.944 144.068 325.838C144.068 324.051 143.893 322.665 143.543 321.682L138.89 330.971C139.393 331.692 140.085 332.052 140.965 332.052Z" fill="url(#paint13_linear_122_130)" fill-opacity="0.6"/>
<path d="M142.223 355.637H145.304V356.738H137.318V355.637H140.881V343.957L137.485 345.973L136.898 345.038L141.091 342.461H142.223V355.637Z" fill="url(#paint14_linear_122_130)" fill-opacity="0.6"/>
<path d="M140.965 366.004C142.46 366.004 143.592 366.635 144.361 367.895C145.144 369.142 145.535 370.957 145.535 373.34C145.535 375.723 145.144 377.545 144.361 378.806C143.592 380.067 142.46 380.697 140.965 380.697C139.484 380.697 138.352 380.067 137.569 378.806C136.787 377.545 136.395 375.723 136.395 373.34C136.395 370.971 136.787 369.156 137.569 367.895C138.352 366.635 139.484 366.004 140.965 366.004ZM137.884 373.34C137.884 375.031 138.037 376.354 138.345 377.31L142.998 368.103C142.509 367.452 141.832 367.126 140.965 367.126C140.001 367.126 139.246 367.639 138.701 368.664C138.156 369.676 137.884 371.234 137.884 373.34ZM140.965 379.554C141.943 379.554 142.705 379.049 143.25 378.037C143.795 377.012 144.068 375.446 144.068 373.34C144.068 371.553 143.893 370.168 143.543 369.184L138.89 378.474C139.393 379.194 140.085 379.554 140.965 379.554Z" fill="url(#paint15_linear_122_130)" fill-opacity="0.6"/>
<path d="M140.965 389.755C142.46 389.755 143.592 390.386 144.361 391.646C145.144 392.893 145.535 394.708 145.535 397.091C145.535 399.474 145.144 401.296 144.361 402.557C143.592 403.818 142.46 404.448 140.965 404.448C139.484 404.448 138.352 403.818 137.569 402.557C136.787 401.296 136.395 399.474 136.395 397.091C136.395 394.722 136.787 392.907 137.569 391.646C138.352 390.386 139.484 389.755 140.965 389.755ZM137.884 397.091C137.884 398.782 138.037 400.105 138.345 401.061L142.998 391.854C142.509 391.203 141.832 390.878 140.965 390.878C140.001 390.878 139.246 391.39 138.701 392.415C138.156 393.427 137.884 394.985 137.884 397.091ZM140.965 403.305C141.943 403.305 142.705 402.8 143.25 401.788C143.795 400.763 144.068 399.197 144.068 397.091C144.068 395.304 143.893 393.919 143.543 392.935L138.89 402.225C139.393 402.945 140.085 403.305 140.965 403.305Z" fill="url(#paint16_linear_122_130)" fill-opacity="0.6"/>
<path d="M142.223 426.89H145.304V427.992H137.318V426.89H140.881V415.21L137.485 417.226L136.898 416.291L141.091 413.714H142.223V426.89Z" fill="url(#paint17_linear_122_130)" fill-opacity="0.6"/>
<path d="M140.965 437.257C142.46 437.257 143.592 437.888 144.361 439.149C145.144 440.396 145.535 442.211 145.535 444.594C145.535 446.977 145.144 448.798 144.361 450.059C143.592 451.32 142.46 451.95 140.965 451.95C139.484 451.95 138.352 451.32 137.569 450.059C136.787 448.798 136.395 446.977 136.395 444.594C136.395 442.224 136.787 440.409 137.569 439.149C138.352 437.888 139.484 437.257 140.965 437.257ZM137.884 444.594C137.884 446.284 138.037 447.607 138.345 448.563L142.998 439.356C142.509 438.705 141.832 438.38 140.965 438.38C140.001 438.38 139.246 438.892 138.701 439.918C138.156 440.929 137.884 442.488 137.884 444.594ZM140.965 450.807C141.943 450.807 142.705 450.302 143.25 449.29C143.795 448.265 144.068 446.699 144.068 444.594C144.068 442.806 143.893 441.421 143.543 440.437L138.89 449.727C139.393 450.447 140.085 450.807 140.965 450.807Z" fill="url(#paint18_linear_122_130)" fill-opacity="0.6"/>
<path d="M142.223 474.392H145.304V475.494H137.318V474.392H140.881V462.713L137.485 464.728L136.898 463.793L141.091 461.216H142.223V474.392Z" fill="url(#paint19_linear_122_130)" fill-opacity="0.6"/>
<path d="M140.965 484.76C142.46 484.76 143.592 485.39 144.361 486.651C145.144 487.898 145.535 489.713 145.535 492.096C145.535 494.479 145.144 496.301 144.361 497.561C143.592 498.822 142.46 499.453 140.965 499.453C139.484 499.453 138.352 498.822 137.569 497.561C136.787 496.301 136.395 494.479 136.395 492.096C136.395 489.726 136.787 487.911 137.569 486.651C138.352 485.39 139.484 484.76 140.965 484.76ZM137.884 492.096C137.884 493.786 138.037 495.109 138.345 496.065L142.998 486.859C142.509 486.207 141.832 485.882 140.965 485.882C140.001 485.882 139.246 486.394 138.701 487.42C138.156 488.431 137.884 489.99 137.884 492.096ZM140.965 498.31C141.943 498.31 142.705 497.804 143.25 496.792C143.795 495.767 144.068 494.202 144.068 492.096C144.068 490.308 143.893 488.923 143.543 487.939L138.89 497.229C139.393 497.949 140.085 498.31 140.965 498.31Z" fill="url(#paint20_linear_122_130)" fill-opacity="0.6"/>
<path d="M140.965 508.511C142.46 508.511 143.592 509.141 144.361 510.402C145.144 511.649 145.535 513.464 145.535 515.847C145.535 518.23 145.144 520.052 144.361 521.312C143.592 522.573 142.46 523.204 140.965 523.204C139.484 523.204 138.352 522.573 137.569 521.312C136.787 520.052 136.395 518.23 136.395 515.847C136.395 513.478 136.787 511.663 137.569 510.402C138.352 509.141 139.484 508.511 140.965 508.511ZM137.884 515.847C137.884 517.537 138.037 518.86 138.345 519.816L142.998 510.61C142.509 509.958 141.832 509.633 140.965 509.633C140.001 509.633 139.246 510.145 138.701 511.171C138.156 512.182 137.884 513.741 137.884 515.847ZM140.965 522.061C141.943 522.061 142.705 521.555 143.25 520.543C143.795 519.518 144.068 517.953 144.068 515.847C144.068 514.059 143.893 512.674 143.543 511.69L138.89 520.98C139.393 521.7 140.085 522.061 140.965 522.061Z" fill="url(#paint21_linear_122_130)" fill-opacity="0.6"/>
<path d="M142.223 545.645H145.304V546.747H137.318V545.645H140.881V533.966L137.485 535.982L136.898 535.046L141.091 532.469H142.223V545.645Z" fill="url(#paint22_linear_122_130)" fill-opacity="0.6"/>
<path d="M140.965 556.013C142.46 556.013 143.592 556.643 144.361 557.904C145.144 559.151 145.535 560.966 145.535 563.349C145.535 565.732 145.144 567.554 144.361 568.815C143.592 570.075 142.46 570.706 140.965 570.706C139.484 570.706 138.352 570.075 137.569 568.815C136.787 567.554 136.395 565.732 136.395 563.349C136.395 560.98 136.787 559.165 137.569 557.904C138.352 556.643 139.484 556.013 140.965 556.013ZM137.884 563.349C137.884 565.039 138.037 566.362 138.345 567.318L142.998 558.112C142.509 557.461 141.832 557.135 140.965 557.135C140.001 557.135 139.246 557.648 138.701 558.673C138.156 559.684 137.884 561.243 137.884 563.349ZM140.965 569.563C141.943 569.563 142.705 569.057 143.25 568.046C143.795 567.02 144.068 565.455 144.068 563.349C144.068 561.562 143.893 560.176 143.543 559.192L138.89 568.482C139.393 569.202 140.085 569.563 140.965 569.563Z" fill="url(#paint23_linear_122_130)" fill-opacity="0.6"/>
<path d="M142.223 593.148H145.304V594.249H137.318V593.148H140.881V581.468L137.485 583.484L136.898 582.549L141.091 579.972H142.223V593.148Z" fill="url(#paint24_linear_122_130)" fill-opacity="0.6"/>
<path d="M142.223 616.899H145.304V618H137.318V616.899H140.881V605.219L137.485 607.235L136.898 606.3L141.091 603.723H142.223V616.899Z" fill="url(#paint25_linear_122_130)" fill-opacity="0.6"/>
<path d="M82.5698 342.253C84.0651 342.253 85.1971 342.884 85.9657 344.144C86.7483 345.391 87.1396 347.206 87.1396 349.589C87.1396 351.972 86.7483 353.794 85.9657 355.055C85.1971 356.316 84.0651 356.946 82.5698 356.946C81.0885 356.946 79.9565 356.316 79.1739 355.055C78.3913 353.794 78 351.972 78 349.589C78 347.22 78.3913 345.405 79.1739 344.144C79.9565 342.884 81.0885 342.253 82.5698 342.253ZM79.4883 349.589C79.4883 351.28 79.6421 352.603 79.9495 353.559L84.6032 344.352C84.114 343.701 83.4363 343.375 82.5698 343.375C81.6055 343.375 80.8509 343.888 80.3059 344.913C79.7608 345.925 79.4883 347.483 79.4883 349.589ZM82.5698 355.803C83.5481 355.803 84.3097 355.297 84.8547 354.286C85.3997 353.261 85.6722 351.695 85.6722 349.589C85.6722 347.802 85.4976 346.417 85.1482 345.433L80.4945 354.722C80.9976 355.443 81.6894 355.803 82.5698 355.803Z" fill="url(#paint26_linear_122_130)" fill-opacity="0.6"/>
<path d="M82.5698 366.004C84.0651 366.004 85.1971 366.635 85.9657 367.895C86.7483 369.142 87.1396 370.957 87.1396 373.34C87.1396 375.723 86.7483 377.545 85.9657 378.806C85.1971 380.067 84.0651 380.697 82.5698 380.697C81.0885 380.697 79.9565 380.067 79.1739 378.806C78.3913 377.545 78 375.723 78 373.34C78 370.971 78.3913 369.156 79.1739 367.895C79.9565 366.635 81.0885 366.004 82.5698 366.004ZM79.4883 373.34C79.4883 375.031 79.6421 376.354 79.9495 377.31L84.6032 368.103C84.114 367.452 83.4363 367.126 82.5698 367.126C81.6055 367.126 80.8509 367.639 80.3059 368.664C79.7608 369.676 79.4883 371.234 79.4883 373.34ZM82.5698 379.554C83.5481 379.554 84.3097 379.049 84.8547 378.037C85.3997 377.012 85.6722 375.446 85.6722 373.34C85.6722 371.553 85.4976 370.168 85.1482 369.184L80.4945 378.474C80.9976 379.194 81.6894 379.554 82.5698 379.554Z" fill="url(#paint27_linear_122_130)" fill-opacity="0.6"/>
<path d="M83.8276 403.139H86.909V404.24H78.9223V403.139H82.486V391.459L79.09 393.475L78.5031 392.54L82.6956 389.963H83.8276V403.139Z" fill="url(#paint28_linear_122_130)" fill-opacity="0.6"/>
<path d="M82.5698 413.506C84.0651 413.506 85.1971 414.137 85.9657 415.398C86.7483 416.644 87.1396 418.459 87.1396 420.842C87.1396 423.225 86.7483 425.047 85.9657 426.308C85.1971 427.569 84.0651 428.199 82.5698 428.199C81.0885 428.199 79.9565 427.569 79.1739 426.308C78.3913 425.047 78 423.225 78 420.842C78 418.473 78.3913 416.658 79.1739 415.398C79.9565 414.137 81.0885 413.506 82.5698 413.506ZM79.4883 420.842C79.4883 422.533 79.6421 423.856 79.9495 424.812L84.6032 415.605C84.114 414.954 83.4363 414.629 82.5698 414.629C81.6055 414.629 80.8509 415.141 80.3059 416.166C79.7608 417.178 79.4883 418.737 79.4883 420.842ZM82.5698 427.056C83.5481 427.056 84.3097 426.551 84.8547 425.539C85.3997 424.514 85.6722 422.948 85.6722 420.842C85.6722 419.055 85.4976 417.67 85.1482 416.686L80.4945 425.976C80.9976 426.696 81.6894 427.056 82.5698 427.056Z" fill="url(#paint29_linear_122_130)" fill-opacity="0.6"/>
<path d="M83.8276 450.641H86.909V451.743H78.9223V450.641H82.486V438.962L79.09 440.977L78.5031 440.042L82.6956 437.465H83.8276V450.641Z" fill="url(#paint30_linear_122_130)" fill-opacity="0.6"/>
<path d="M83.8276 474.392H86.909V475.494H78.9223V474.392H82.486V462.713L79.09 464.728L78.5031 463.793L82.6956 461.216H83.8276V474.392Z" fill="url(#paint31_linear_122_130)" fill-opacity="0.6"/>
<path d="M122.758 308.135H125.839V309.236H117.853V308.135H121.416V296.455L118.02 298.471L117.433 297.536L121.626 294.959H122.758V308.135Z" fill="url(#paint32_linear_122_130)" fill-opacity="0.6"/>
<path d="M121.5 318.502C122.995 318.502 124.127 319.133 124.896 320.393C125.679 321.64 126.07 323.455 126.07 325.838C126.07 328.221 125.679 330.043 124.896 331.304C124.127 332.565 122.995 333.195 121.5 333.195C120.019 333.195 118.887 332.565 118.104 331.304C117.321 330.043 116.93 328.221 116.93 325.838C116.93 323.469 117.321 321.654 118.104 320.393C118.887 319.133 120.019 318.502 121.5 318.502ZM118.419 325.838C118.419 327.529 118.572 328.852 118.88 329.808L123.533 320.601C123.044 319.95 122.366 319.624 121.5 319.624C120.536 319.624 119.781 320.137 119.236 321.162C118.691 322.174 118.419 323.732 118.419 325.838ZM121.5 332.052C122.478 332.052 123.24 331.546 123.785 330.535C124.33 329.51 124.602 327.944 124.602 325.838C124.602 324.051 124.428 322.665 124.078 321.682L119.425 330.971C119.928 331.692 120.62 332.052 121.5 332.052Z" fill="url(#paint33_linear_122_130)" fill-opacity="0.6"/>
<path d="M122.758 355.637H125.839V356.738H117.853V355.637H121.416V343.957L118.02 345.973L117.433 345.038L121.626 342.461H122.758V355.637Z" fill="url(#paint34_linear_122_130)" fill-opacity="0.6"/>
<path d="M122.758 379.388H125.839V380.489H117.853V379.388H121.416V367.708L118.02 369.724L117.433 368.789L121.626 366.212H122.758V379.388Z" fill="url(#paint35_linear_122_130)" fill-opacity="0.6"/>
<path d="M121.5 389.755C122.995 389.755 124.127 390.386 124.896 391.646C125.679 392.893 126.07 394.708 126.07 397.091C126.07 399.474 125.679 401.296 124.896 402.557C124.127 403.818 122.995 404.448 121.5 404.448C120.019 404.448 118.887 403.818 118.104 402.557C117.321 401.296 116.93 399.474 116.93 397.091C116.93 394.722 117.321 392.907 118.104 391.646C118.887 390.386 120.019 389.755 121.5 389.755ZM118.419 397.091C118.419 398.782 118.572 400.105 118.88 401.061L123.533 391.854C123.044 391.203 122.366 390.878 121.5 390.878C120.536 390.878 119.781 391.39 119.236 392.415C118.691 393.427 118.419 394.985 118.419 397.091ZM121.5 403.305C122.478 403.305 123.24 402.8 123.785 401.788C124.33 400.763 124.602 399.197 124.602 397.091C124.602 395.304 124.428 393.919 124.078 392.935L119.425 402.225C119.928 402.945 120.62 403.305 121.5 403.305Z" fill="url(#paint36_linear_122_130)" fill-opacity="0.6"/>
<path d="M122.758 426.89H125.839V427.992H117.853V426.89H121.416V415.21L118.02 417.226L117.433 416.291L121.626 413.714H122.758V426.89Z" fill="url(#paint37_linear_122_130)" fill-opacity="0.6"/>
<path d="M122.758 450.641H125.839V451.743H117.853V450.641H121.416V438.962L118.02 440.977L117.433 440.042L121.626 437.465H122.758V450.641Z" fill="url(#paint38_linear_122_130)" fill-opacity="0.6"/>
<path d="M121.5 461.008C122.995 461.008 124.127 461.639 124.896 462.9C125.679 464.147 126.07 465.962 126.07 468.345C126.07 470.728 125.679 472.549 124.896 473.81C124.127 475.071 122.995 475.701 121.5 475.701C120.019 475.701 118.887 475.071 118.104 473.81C117.321 472.549 116.93 470.728 116.93 468.345C116.93 465.975 117.321 464.16 118.104 462.9C118.887 461.639 120.019 461.008 121.5 461.008ZM118.419 468.345C118.419 470.035 118.572 471.358 118.88 472.314L123.533 463.107C123.044 462.456 122.366 462.131 121.5 462.131C120.536 462.131 119.781 462.643 119.236 463.669C118.691 464.68 118.419 466.239 118.419 468.345ZM121.5 474.558C122.478 474.558 123.24 474.053 123.785 473.041C124.33 472.016 124.602 470.451 124.602 468.345C124.602 466.557 124.428 465.172 124.078 464.188L119.425 473.478C119.928 474.198 120.62 474.558 121.5 474.558Z" fill="url(#paint39_linear_122_130)" fill-opacity="0.6"/>
<path d="M122.758 498.143H125.839V499.245H117.853V498.143H121.416V486.464L118.02 488.48L117.433 487.544L121.626 484.967H122.758V498.143Z" fill="url(#paint40_linear_122_130)" fill-opacity="0.6"/>
<path d="M121.5 508.511C122.995 508.511 124.127 509.141 124.896 510.402C125.679 511.649 126.07 513.464 126.07 515.847C126.07 518.23 125.679 520.052 124.896 521.312C124.127 522.573 122.995 523.204 121.5 523.204C120.019 523.204 118.887 522.573 118.104 521.312C117.321 520.052 116.93 518.23 116.93 515.847C116.93 513.478 117.321 511.663 118.104 510.402C118.887 509.141 120.019 508.511 121.5 508.511ZM118.419 515.847C118.419 517.537 118.572 518.86 118.88 519.816L123.533 510.61C123.044 509.958 122.366 509.633 121.5 509.633C120.536 509.633 119.781 510.145 119.236 511.171C118.691 512.182 118.419 513.741 118.419 515.847ZM121.5 522.061C122.478 522.061 123.24 521.555 123.785 520.543C124.33 519.518 124.602 517.953 124.602 515.847C124.602 514.059 124.428 512.674 124.078 511.69L119.425 520.98C119.928 521.7 120.62 522.061 121.5 522.061Z" fill="url(#paint41_linear_122_130)" fill-opacity="0.6"/>
<path d="M160.43 294.751C161.926 294.751 163.057 295.381 163.826 296.642C164.609 297.889 165 299.704 165 302.087C165 304.47 164.609 306.292 163.826 307.553C163.057 308.814 161.926 309.444 160.43 309.444C158.949 309.444 157.817 308.814 157.034 307.553C156.252 306.292 155.86 304.47 155.86 302.087C155.86 299.718 156.252 297.903 157.034 296.642C157.817 295.381 158.949 294.751 160.43 294.751ZM157.349 302.087C157.349 303.777 157.502 305.101 157.81 306.057L162.464 296.85C161.974 296.199 161.297 295.873 160.43 295.873C159.466 295.873 158.711 296.386 158.166 297.411C157.621 298.423 157.349 299.981 157.349 302.087ZM160.43 308.301C161.408 308.301 162.17 307.795 162.715 306.784C163.26 305.759 163.533 304.193 163.533 302.087C163.533 300.3 163.358 298.914 163.009 297.931L158.355 307.22C158.858 307.941 159.55 308.301 160.43 308.301Z" fill="url(#paint42_linear_122_130)" fill-opacity="0.6"/>
<path d="M161.688 331.886H164.769V332.987H156.783V331.886H160.346V320.206L156.95 322.222L156.363 321.287L160.556 318.71H161.688V331.886Z" fill="url(#paint43_linear_122_130)" fill-opacity="0.6"/>
<path d="M161.688 355.637H164.769V356.738H156.783V355.637H160.346V343.957L156.95 345.973L156.363 345.038L160.556 342.461H161.688V355.637Z" fill="url(#paint44_linear_122_130)" fill-opacity="0.6"/>
<path d="M160.43 366.004C161.926 366.004 163.057 366.635 163.826 367.895C164.609 369.142 165 370.957 165 373.34C165 375.723 164.609 377.545 163.826 378.806C163.057 380.067 161.926 380.697 160.43 380.697C158.949 380.697 157.817 380.067 157.034 378.806C156.252 377.545 155.86 375.723 155.86 373.34C155.86 370.971 156.252 369.156 157.034 367.895C157.817 366.635 158.949 366.004 160.43 366.004ZM157.349 373.34C157.349 375.031 157.502 376.354 157.81 377.31L162.464 368.103C161.974 367.452 161.297 367.126 160.43 367.126C159.466 367.126 158.711 367.639 158.166 368.664C157.621 369.676 157.349 371.234 157.349 373.34ZM160.43 379.554C161.408 379.554 162.17 379.049 162.715 378.037C163.26 377.012 163.533 375.446 163.533 373.34C163.533 371.553 163.358 370.168 163.009 369.184L158.355 378.474C158.858 379.194 159.55 379.554 160.43 379.554Z" fill="url(#paint45_linear_122_130)" fill-opacity="0.6"/>
<path d="M160.43 389.755C161.926 389.755 163.057 390.386 163.826 391.646C164.609 392.893 165 394.708 165 397.091C165 399.474 164.609 401.296 163.826 402.557C163.057 403.818 161.926 404.448 160.43 404.448C158.949 404.448 157.817 403.818 157.034 402.557C156.252 401.296 155.86 399.474 155.86 397.091C155.86 394.722 156.252 392.907 157.034 391.646C157.817 390.386 158.949 389.755 160.43 389.755ZM157.349 397.091C157.349 398.782 157.502 400.105 157.81 401.061L162.464 391.854C161.974 391.203 161.297 390.878 160.43 390.878C159.466 390.878 158.711 391.39 158.166 392.415C157.621 393.427 157.349 394.985 157.349 397.091ZM160.43 403.305C161.408 403.305 162.17 402.8 162.715 401.788C163.26 400.763 163.533 399.197 163.533 397.091C163.533 395.304 163.358 393.919 163.009 392.935L158.355 402.225C158.858 402.945 159.55 403.305 160.43 403.305Z" fill="url(#paint46_linear_122_130)" fill-opacity="0.6"/>
<g opacity="0.6">
<path d="M988.93 -29C990.356 -29 991.436 -28.395 992.17 -27.1851C992.916 -25.9885 993.29 -24.2468 993.29 -21.9599C993.29 -19.673 992.916 -17.9246 992.17 -16.7147C991.436 -15.5048 990.356 -14.8998 988.93 -14.8998C987.517 -14.8998 986.437 -15.5048 985.69 -16.7147C984.943 -17.9246 984.57 -19.673 984.57 -21.9599C984.57 -24.2335 984.943 -25.9752 985.69 -27.1851C986.437 -28.395 987.517 -29 988.93 -29ZM985.99 -21.9599C985.99 -20.3378 986.137 -19.068 986.43 -18.1506L990.87 -26.9857C990.403 -27.6106 989.756 -27.923 988.93 -27.923C988.01 -27.923 987.29 -27.4311 986.77 -26.4472C986.25 -25.4766 985.99 -23.9808 985.99 -21.9599ZM988.93 -15.9967C989.863 -15.9967 990.59 -16.482 991.11 -17.4526C991.63 -18.4365 991.89 -19.9389 991.89 -21.9599C991.89 -23.675 991.723 -25.0046 991.39 -25.9486L986.95 -17.0338C987.43 -16.3424 988.09 -15.9967 988.93 -15.9967Z" fill="url(#paint47_linear_122_130)"/>
<path d="M990.13 6.63655H993.07V7.69356H985.45V6.63655H988.85V-4.57181L985.61 -2.63727L985.05 -3.53474L989.05 -6.00776H990.13V6.63655Z" fill="url(#paint48_linear_122_130)"/>
<path d="M988.93 16.5856C990.356 16.5856 991.436 17.1906 992.17 18.4005C992.916 19.5971 993.29 21.3389 993.29 23.6257C993.29 25.9126 992.916 27.661 992.17 28.8709C991.436 30.0808 990.356 30.6858 988.93 30.6858C987.517 30.6858 986.437 30.0808 985.69 28.8709C984.943 27.661 984.57 25.9126 984.57 23.6257C984.57 21.3522 984.943 19.6104 985.69 18.4005C986.437 17.1906 987.517 16.5856 988.93 16.5856ZM985.99 23.6257C985.99 25.2478 986.137 26.5176 986.43 27.435L990.87 18.5999C990.403 17.975 989.756 17.6626 988.93 17.6626C988.01 17.6626 987.29 18.1545 986.77 19.1384C986.25 20.109 985.99 21.6048 985.99 23.6257ZM988.93 29.5889C989.863 29.5889 990.59 29.1036 991.11 28.133C991.63 27.1491 991.89 25.6467 991.89 23.6257C991.89 21.9106 991.723 20.581 991.39 19.637L986.95 28.5518C987.43 29.2432 988.09 29.5889 988.93 29.5889Z" fill="url(#paint49_linear_122_130)"/>
<path d="M990.13 52.2221H993.07V53.2792H985.45V52.2221H988.85V41.0138L985.61 42.9483L985.05 42.0509L989.05 39.5778H990.13V52.2221Z" fill="url(#paint50_linear_122_130)"/>
<path d="M990.13 75.015H993.07V76.072H985.45V75.015H988.85V63.8066L985.61 65.7411L985.05 64.8437L989.05 62.3706H990.13V75.015Z" fill="url(#paint51_linear_122_130)"/>
<path d="M988.93 84.964C990.356 84.964 991.436 85.569 992.17 86.7789C992.916 87.9755 993.29 89.7173 993.29 92.0041C993.29 94.291 992.916 96.0394 992.17 97.2493C991.436 98.4593 990.356 99.0642 988.93 99.0642C987.517 99.0642 986.437 98.4593 985.69 97.2493C984.943 96.0394 984.57 94.291 984.57 92.0041C984.57 89.7306 984.943 87.9888 985.69 86.7789C986.437 85.569 987.517 84.964 988.93 84.964ZM985.99 92.0041C985.99 93.6262 986.137 94.896 986.43 95.8134L990.87 86.9783C990.403 86.3534 989.756 86.041 988.93 86.041C988.01 86.041 987.29 86.5329 986.77 87.5168C986.25 88.4874 985.99 89.9832 985.99 92.0041ZM988.93 97.9673C989.863 97.9673 990.59 97.482 991.11 96.5114C991.63 95.5275 991.89 94.0251 991.89 92.0041C991.89 90.289 991.723 88.9594 991.39 88.0154L986.95 96.9302C987.43 97.6216 988.09 97.9673 988.93 97.9673Z" fill="url(#paint52_linear_122_130)"/>
<path d="M990.13 120.601H993.07V121.658H985.45V120.601H988.85V109.392L985.61 111.327L985.05 110.429L989.05 107.956H990.13V120.601Z" fill="url(#paint53_linear_122_130)"/>
<path d="M988.93 130.55C990.356 130.55 991.436 131.155 992.17 132.365C992.916 133.561 993.29 135.303 993.29 137.59C993.29 139.877 992.916 141.625 992.17 142.835C991.436 144.045 990.356 144.65 988.93 144.65C987.517 144.65 986.437 144.045 985.69 142.835C984.943 141.625 984.57 139.877 984.57 137.59C984.57 135.316 984.943 133.574 985.69 132.365C986.437 131.155 987.517 130.55 988.93 130.55ZM985.99 137.59C985.99 139.212 986.137 140.482 986.43 141.399L990.87 132.564C990.403 131.939 989.756 131.627 988.93 131.627C988.01 131.627 987.29 132.119 986.77 133.102C986.25 134.073 985.99 135.569 985.99 137.59ZM988.93 143.553C989.863 143.553 990.59 143.068 991.11 142.097C991.63 141.113 991.89 139.611 991.89 137.59C991.89 135.875 991.723 134.545 991.39 133.601L986.95 142.516C987.43 143.207 988.09 143.553 988.93 143.553Z" fill="url(#paint54_linear_122_130)"/>
<path d="M988.93 153.342C990.356 153.342 991.436 153.947 992.17 155.157C992.916 156.354 993.29 158.096 993.29 160.383C993.29 162.669 992.916 164.418 992.17 165.628C991.436 166.838 990.356 167.443 988.93 167.443C987.517 167.443 986.437 166.838 985.69 165.628C984.943 164.418 984.57 162.669 984.57 160.383C984.57 158.109 984.943 156.367 985.69 155.157C986.437 153.947 987.517 153.342 988.93 153.342ZM985.99 160.383C985.99 162.005 986.137 163.274 986.43 164.192L990.87 155.357C990.403 154.732 989.756 154.419 988.93 154.419C988.01 154.419 987.29 154.911 986.77 155.895C986.25 156.866 985.99 158.362 985.99 160.383ZM988.93 166.346C989.863 166.346 990.59 165.86 991.11 164.89C991.63 163.906 991.89 162.404 991.89 160.383C991.89 158.667 991.723 157.338 991.39 156.394L986.95 165.309C987.43 166 988.09 166.346 988.93 166.346Z" fill="url(#paint55_linear_122_130)"/>
<path d="M990.13 188.979H993.07V190.036H985.45V188.979H988.85V177.771L985.61 179.705L985.05 178.808L989.05 176.335H990.13V188.979Z" fill="url(#paint56_linear_122_130)"/>
<path d="M988.93 198.928C990.356 198.928 991.436 199.533 992.17 200.743C992.916 201.94 993.29 203.681 993.29 205.968C993.29 208.255 992.916 210.003 992.17 211.213C991.436 212.423 990.356 213.028 988.93 213.028C987.517 213.028 986.437 212.423 985.69 211.213C984.943 210.003 984.57 208.255 984.57 205.968C984.57 203.695 984.943 201.953 985.69 200.743C986.437 199.533 987.517 198.928 988.93 198.928ZM985.99 205.968C985.99 207.59 986.137 208.86 986.43 209.777L990.87 200.942C990.403 200.317 989.756 200.005 988.93 200.005C988.01 200.005 987.29 200.497 986.77 201.481C986.25 202.451 985.99 203.947 985.99 205.968ZM988.93 211.931C989.863 211.931 990.59 211.446 991.11 210.475C991.63 209.492 991.89 207.989 991.89 205.968C991.89 204.253 991.723 202.923 991.39 201.979L986.95 210.894C987.43 211.586 988.09 211.931 988.93 211.931Z" fill="url(#paint57_linear_122_130)"/>
<path d="M990.13 234.565H993.07V235.622H985.45V234.565H988.85V223.356L985.61 225.291L985.05 224.393L989.05 221.92H990.13V234.565Z" fill="url(#paint58_linear_122_130)"/>
<path d="M990.13 257.357H993.07V258.414H985.45V257.357H988.85V246.149L985.61 248.084L985.05 247.186L989.05 244.713H990.13V257.357Z" fill="url(#paint59_linear_122_130)"/>
<path d="M1026.07 16.5856C1027.5 16.5856 1028.58 17.1906 1029.31 18.4005C1030.06 19.5971 1030.43 21.3389 1030.43 23.6257C1030.43 25.9126 1030.06 27.661 1029.31 28.8709C1028.58 30.0808 1027.5 30.6858 1026.07 30.6858C1024.66 30.6858 1023.58 30.0808 1022.83 28.8709C1022.08 27.661 1021.71 25.9126 1021.71 23.6257C1021.71 21.3522 1022.08 19.6104 1022.83 18.4005C1023.58 17.1906 1024.66 16.5856 1026.07 16.5856ZM1023.13 23.6257C1023.13 25.2478 1023.28 26.5176 1023.57 27.435L1028.01 18.5999C1027.54 17.975 1026.9 17.6626 1026.07 17.6626C1025.15 17.6626 1024.43 18.1545 1023.91 19.1384C1023.39 20.109 1023.13 21.6048 1023.13 23.6257ZM1026.07 29.5889C1027 29.5889 1027.73 29.1036 1028.25 28.133C1028.77 27.1491 1029.03 25.6467 1029.03 23.6257C1029.03 21.9106 1028.86 20.581 1028.53 19.637L1024.09 28.5518C1024.57 29.2432 1025.23 29.5889 1026.07 29.5889Z" fill="url(#paint60_linear_122_130)"/>
<path d="M1027.27 52.2221H1030.21V53.2792H1022.59V52.2221H1025.99V41.0138L1022.75 42.9483L1022.19 42.0509L1026.19 39.5778H1027.27V52.2221Z" fill="url(#paint61_linear_122_130)"/>
<path d="M1026.07 62.1712C1027.5 62.1712 1028.58 62.7762 1029.31 63.9861C1030.06 65.1827 1030.43 66.9245 1030.43 69.2113C1030.43 71.4982 1030.06 73.2466 1029.31 74.4565C1028.58 75.6664 1027.5 76.2714 1026.07 76.2714C1024.66 76.2714 1023.58 75.6664 1022.83 74.4565C1022.08 73.2466 1021.71 71.4982 1021.71 69.2113C1021.71 66.9378 1022.08 65.196 1022.83 63.9861C1023.58 62.7762 1024.66 62.1712 1026.07 62.1712ZM1023.13 69.2113C1023.13 70.8334 1023.28 72.1032 1023.57 73.0206L1028.01 64.1855C1027.54 63.5606 1026.9 63.2482 1026.07 63.2482C1025.15 63.2482 1024.43 63.7401 1023.91 64.724C1023.39 65.6946 1023.13 67.1904 1023.13 69.2113ZM1026.07 75.1745C1027 75.1745 1027.73 74.6892 1028.25 73.7186C1028.77 72.7347 1029.03 71.2323 1029.03 69.2113C1029.03 67.4962 1028.86 66.1666 1028.53 65.2226L1024.09 74.1374C1024.57 74.8288 1025.23 75.1745 1026.07 75.1745Z" fill="url(#paint62_linear_122_130)"/>
<path d="M1026.07 84.964C1027.5 84.964 1028.58 85.569 1029.31 86.7789C1030.06 87.9755 1030.43 89.7173 1030.43 92.0041C1030.43 94.291 1030.06 96.0394 1029.31 97.2493C1028.58 98.4593 1027.5 99.0642 1026.07 99.0642C1024.66 99.0642 1023.58 98.4593 1022.83 97.2493C1022.08 96.0394 1021.71 94.291 1021.71 92.0041C1021.71 89.7306 1022.08 87.9888 1022.83 86.7789C1023.58 85.569 1024.66 84.964 1026.07 84.964ZM1023.13 92.0041C1023.13 93.6262 1023.28 94.896 1023.57 95.8134L1028.01 86.9783C1027.54 86.3534 1026.9 86.041 1026.07 86.041C1025.15 86.041 1024.43 86.5329 1023.91 87.5168C1023.39 88.4874 1023.13 89.9832 1023.13 92.0041ZM1026.07 97.9673C1027 97.9673 1027.73 97.482 1028.25 96.5114C1028.77 95.5275 1029.03 94.0251 1029.03 92.0041C1029.03 90.289 1028.86 88.9594 1028.53 88.0154L1024.09 96.9302C1024.57 97.6216 1025.23 97.9673 1026.07 97.9673Z" fill="url(#paint63_linear_122_130)"/>
<path d="M1027.27 120.601H1030.21V121.658H1022.59V120.601H1025.99V109.392L1022.75 111.327L1022.19 110.429L1026.19 107.956H1027.27V120.601Z" fill="url(#paint64_linear_122_130)"/>
<path d="M1026.07 130.55C1027.5 130.55 1028.58 131.155 1029.31 132.365C1030.06 133.561 1030.43 135.303 1030.43 137.59C1030.43 139.877 1030.06 141.625 1029.31 142.835C1028.58 144.045 1027.5 144.65 1026.07 144.65C1024.66 144.65 1023.58 144.045 1022.83 142.835C1022.08 141.625 1021.71 139.877 1021.71 137.59C1021.71 135.316 1022.08 133.574 1022.83 132.365C1023.58 131.155 1024.66 130.55 1026.07 130.55ZM1023.13 137.59C1023.13 139.212 1023.28 140.482 1023.57 141.399L1028.01 132.564C1027.54 131.939 1026.9 131.627 1026.07 131.627C1025.15 131.627 1024.43 132.119 1023.91 133.102C1023.39 134.073 1023.13 135.569 1023.13 137.59ZM1026.07 143.553C1027 143.553 1027.73 143.068 1028.25 142.097C1028.77 141.113 1029.03 139.611 1029.03 137.59C1029.03 135.875 1028.86 134.545 1028.53 133.601L1024.09 142.516C1024.57 143.207 1025.23 143.553 1026.07 143.553Z" fill="url(#paint65_linear_122_130)"/>
<path d="M1027.27 166.186H1030.21V167.243H1022.59V166.186H1025.99V154.978L1022.75 156.912L1022.19 156.015L1026.19 153.542H1027.27V166.186Z" fill="url(#paint66_linear_122_130)"/>
<path d="M1026.07 176.135C1027.5 176.135 1028.58 176.74 1029.31 177.95C1030.06 179.147 1030.43 180.888 1030.43 183.175C1030.43 185.462 1030.06 187.211 1029.31 188.421C1028.58 189.63 1027.5 190.235 1026.07 190.235C1024.66 190.235 1023.58 189.63 1022.83 188.421C1022.08 187.211 1021.71 185.462 1021.71 183.175C1021.71 180.902 1022.08 179.16 1022.83 177.95C1023.58 176.74 1024.66 176.135 1026.07 176.135ZM1023.13 183.175C1023.13 184.797 1023.28 186.067 1023.57 186.985L1028.01 178.15C1027.54 177.525 1026.9 177.212 1026.07 177.212C1025.15 177.212 1024.43 177.704 1023.91 178.688C1023.39 179.659 1023.13 181.154 1023.13 183.175ZM1026.07 189.139C1027 189.139 1027.73 188.653 1028.25 187.683C1028.77 186.699 1029.03 185.196 1029.03 183.175C1029.03 181.46 1028.86 180.131 1028.53 179.187L1024.09 188.101C1024.57 188.793 1025.23 189.139 1026.07 189.139Z" fill="url(#paint67_linear_122_130)"/>
<path d="M1026.07 198.928C1027.5 198.928 1028.58 199.533 1029.31 200.743C1030.06 201.94 1030.43 203.681 1030.43 205.968C1030.43 208.255 1030.06 210.003 1029.31 211.213C1028.58 212.423 1027.5 213.028 1026.07 213.028C1024.66 213.028 1023.58 212.423 1022.83 211.213C1022.08 210.003 1021.71 208.255 1021.71 205.968C1021.71 203.695 1022.08 201.953 1022.83 200.743C1023.58 199.533 1024.66 198.928 1026.07 198.928ZM1023.13 205.968C1023.13 207.59 1023.28 208.86 1023.57 209.777L1028.01 200.942C1027.54 200.317 1026.9 200.005 1026.07 200.005C1025.15 200.005 1024.43 200.497 1023.91 201.481C1023.39 202.451 1023.13 203.947 1023.13 205.968ZM1026.07 211.931C1027 211.931 1027.73 211.446 1028.25 210.475C1028.77 209.492 1029.03 207.989 1029.03 205.968C1029.03 204.253 1028.86 202.923 1028.53 201.979L1024.09 210.894C1024.57 211.586 1025.23 211.931 1026.07 211.931Z" fill="url(#paint68_linear_122_130)"/>
<path d="M1027.27 234.565H1030.21V235.622H1022.59V234.565H1025.99V223.356L1022.75 225.291L1022.19 224.393L1026.19 221.92H1027.27V234.565Z" fill="url(#paint69_linear_122_130)"/>
<path d="M1026.07 244.514C1027.5 244.514 1028.58 245.119 1029.31 246.329C1030.06 247.525 1030.43 249.267 1030.43 251.554C1030.43 253.841 1030.06 255.589 1029.31 256.799C1028.58 258.009 1027.5 258.614 1026.07 258.614C1024.66 258.614 1023.58 258.009 1022.83 256.799C1022.08 255.589 1021.71 253.841 1021.71 251.554C1021.71 249.28 1022.08 247.538 1022.83 246.329C1023.58 245.119 1024.66 244.514 1026.07 244.514ZM1023.13 251.554C1023.13 253.176 1023.28 254.446 1023.57 255.363L1028.01 246.528C1027.54 245.903 1026.9 245.591 1026.07 245.591C1025.15 245.591 1024.43 246.083 1023.91 247.066C1023.39 248.037 1023.13 249.533 1023.13 251.554ZM1026.07 257.517C1027 257.517 1027.73 257.032 1028.25 256.061C1028.77 255.077 1029.03 253.575 1029.03 251.554C1029.03 249.839 1028.86 248.509 1028.53 247.565L1024.09 256.48C1024.57 257.171 1025.23 257.517 1026.07 257.517Z" fill="url(#paint70_linear_122_130)"/>
<path d="M1027.27 280.15H1030.21V281.207H1022.59V280.15H1025.99V268.942L1022.75 270.876L1022.19 269.979L1026.19 267.506H1027.27V280.15Z" fill="url(#paint71_linear_122_130)"/>
<path d="M1027.27 302.943H1030.21V304H1022.59V302.943H1025.99V291.735L1022.75 293.669L1022.19 292.772L1026.19 290.299H1027.27V302.943Z" fill="url(#paint72_linear_122_130)"/>
<path d="M970.36 39.3784C971.786 39.3784 972.866 39.9834 973.599 41.1933C974.346 42.3899 974.719 44.1317 974.719 46.4185C974.719 48.7054 974.346 50.4538 973.599 51.6637C972.866 52.8736 971.786 53.4786 970.36 53.4786C968.946 53.4786 967.867 52.8736 967.12 51.6637C966.373 50.4538 966 48.7054 966 46.4185C966 44.145 966.373 42.4032 967.12 41.1933C967.867 39.9834 968.946 39.3784 970.36 39.3784ZM967.42 46.4185C967.42 48.0406 967.567 49.3104 967.86 50.2278L972.3 41.3927C971.833 40.7678 971.186 40.4554 970.36 40.4554C969.44 40.4554 968.72 40.9473 968.2 41.9312C967.68 42.9018 967.42 44.3976 967.42 46.4185ZM970.36 52.3817C971.293 52.3817 972.02 51.8964 972.54 50.9258C973.06 49.9419 973.319 48.4395 973.319 46.4185C973.319 44.7034 973.153 43.3738 972.82 42.4298L968.38 51.3446C968.86 52.036 969.52 52.3817 970.36 52.3817Z" fill="url(#paint73_linear_122_130)"/>
<path d="M970.36 62.1712C971.786 62.1712 972.866 62.7762 973.599 63.9861C974.346 65.1827 974.719 66.9245 974.719 69.2113C974.719 71.4982 974.346 73.2466 973.599 74.4565C972.866 75.6664 971.786 76.2714 970.36 76.2714C968.946 76.2714 967.867 75.6664 967.12 74.4565C966.373 73.2466 966 71.4982 966 69.2113C966 66.9378 966.373 65.196 967.12 63.9861C967.867 62.7762 968.946 62.1712 970.36 62.1712ZM967.42 69.2113C967.42 70.8334 967.567 72.1032 967.86 73.0206L972.3 64.1855C971.833 63.5606 971.186 63.2482 970.36 63.2482C969.44 63.2482 968.72 63.7401 968.2 64.724C967.68 65.6946 967.42 67.1904 967.42 69.2113ZM970.36 75.1745C971.293 75.1745 972.02 74.6892 972.54 73.7186C973.06 72.7347 973.319 71.2323 973.319 69.2113C973.319 67.4962 973.153 66.1666 972.82 65.2226L968.38 74.1374C968.86 74.8288 969.52 75.1745 970.36 75.1745Z" fill="url(#paint74_linear_122_130)"/>
<path d="M971.56 97.8078H974.499V98.8648H966.88V97.8078H970.28V86.5994L967.04 88.5339L966.48 87.6365L970.48 85.1635H971.56V97.8078Z" fill="url(#paint75_linear_122_130)"/>
<path d="M970.36 107.757C971.786 107.757 972.866 108.362 973.599 109.572C974.346 110.768 974.719 112.51 974.719 114.797C974.719 117.084 974.346 118.832 973.599 120.042C972.866 121.252 971.786 121.857 970.36 121.857C968.946 121.857 967.867 121.252 967.12 120.042C966.373 118.832 966 117.084 966 114.797C966 112.523 966.373 110.782 967.12 109.572C967.867 108.362 968.946 107.757 970.36 107.757ZM967.42 114.797C967.42 116.419 967.567 117.689 967.86 118.606L972.3 109.771C971.833 109.146 971.186 108.834 970.36 108.834C969.44 108.834 968.72 109.326 968.2 110.31C967.68 111.28 967.42 112.776 967.42 114.797ZM970.36 120.76C971.293 120.76 972.02 120.275 972.54 119.304C973.06 118.32 973.319 116.818 973.319 114.797C973.319 113.082 973.153 111.752 972.82 110.808L968.38 119.723C968.86 120.414 969.52 120.76 970.36 120.76Z" fill="url(#paint76_linear_122_130)"/>
<path d="M971.56 143.393H974.499V144.45H966.88V143.393H970.28V132.185L967.04 134.12L966.48 133.222L970.48 130.749H971.56V143.393Z" fill="url(#paint77_linear_122_130)"/>
<path d="M971.56 166.186H974.499V167.243H966.88V166.186H970.28V154.978L967.04 156.912L966.48 156.015L970.48 153.542H971.56V166.186Z" fill="url(#paint78_linear_122_130)"/>
<path d="M1008.7 6.63655H1011.64V7.69356H1004.02V6.63655H1007.42V-4.57181L1004.18 -2.63727L1003.62 -3.53474L1007.62 -6.00776H1008.7V6.63655Z" fill="url(#paint79_linear_122_130)"/>
<path d="M1007.5 16.5856C1008.93 16.5856 1010.01 17.1906 1010.74 18.4005C1011.49 19.5971 1011.86 21.3389 1011.86 23.6257C1011.86 25.9126 1011.49 27.661 1010.74 28.8709C1010.01 30.0808 1008.93 30.6858 1007.5 30.6858C1006.09 30.6858 1005.01 30.0808 1004.26 28.8709C1003.51 27.661 1003.14 25.9126 1003.14 23.6257C1003.14 21.3522 1003.51 19.6104 1004.26 18.4005C1005.01 17.1906 1006.09 16.5856 1007.5 16.5856ZM1004.56 23.6257C1004.56 25.2478 1004.71 26.5176 1005 27.435L1009.44 18.5999C1008.97 17.975 1008.33 17.6626 1007.5 17.6626C1006.58 17.6626 1005.86 18.1545 1005.34 19.1384C1004.82 20.109 1004.56 21.6048 1004.56 23.6257ZM1007.5 29.5889C1008.43 29.5889 1009.16 29.1036 1009.68 28.133C1010.2 27.1491 1010.46 25.6467 1010.46 23.6257C1010.46 21.9106 1010.29 20.581 1009.96 19.637L1005.52 28.5518C1006 29.2432 1006.66 29.5889 1007.5 29.5889Z" fill="url(#paint80_linear_122_130)"/>
<path d="M1008.7 52.2221H1011.64V53.2792H1004.02V52.2221H1007.42V41.0138L1004.18 42.9483L1003.62 42.0509L1007.62 39.5778H1008.7V52.2221Z" fill="url(#paint81_linear_122_130)"/>
<path d="M1008.7 75.015H1011.64V76.072H1004.02V75.015H1007.42V63.8066L1004.18 65.7411L1003.62 64.8437L1007.62 62.3706H1008.7V75.015Z" fill="url(#paint82_linear_122_130)"/>
<path d="M1007.5 84.964C1008.93 84.964 1010.01 85.569 1010.74 86.7789C1011.49 87.9755 1011.86 89.7173 1011.86 92.0041C1011.86 94.291 1011.49 96.0394 1010.74 97.2493C1010.01 98.4593 1008.93 99.0642 1007.5 99.0642C1006.09 99.0642 1005.01 98.4593 1004.26 97.2493C1003.51 96.0394 1003.14 94.291 1003.14 92.0041C1003.14 89.7306 1003.51 87.9888 1004.26 86.7789C1005.01 85.569 1006.09 84.964 1007.5 84.964ZM1004.56 92.0041C1004.56 93.6262 1004.71 94.896 1005 95.8134L1009.44 86.9783C1008.97 86.3534 1008.33 86.041 1007.5 86.041C1006.58 86.041 1005.86 86.5329 1005.34 87.5168C1004.82 88.4874 1004.56 89.9832 1004.56 92.0041ZM1007.5 97.9673C1008.43 97.9673 1009.16 97.482 1009.68 96.5114C1010.2 95.5275 1010.46 94.0251 1010.46 92.0041C1010.46 90.289 1010.29 88.9594 1009.96 88.0154L1005.52 96.9302C1006 97.6216 1006.66 97.9673 1007.5 97.9673Z" fill="url(#paint83_linear_122_130)"/>
<path d="M1008.7 120.601H1011.64V121.658H1004.02V120.601H1007.42V109.392L1004.18 111.327L1003.62 110.429L1007.62 107.956H1008.7V120.601Z" fill="url(#paint84_linear_122_130)"/>
<path d="M1008.7 143.393H1011.64V144.45H1004.02V143.393H1007.42V132.185L1004.18 134.12L1003.62 133.222L1007.62 130.749H1008.7V143.393Z" fill="url(#paint85_linear_122_130)"/>
<path d="M1007.5 153.342C1008.93 153.342 1010.01 153.947 1010.74 155.157C1011.49 156.354 1011.86 158.096 1011.86 160.383C1011.86 162.669 1011.49 164.418 1010.74 165.628C1010.01 166.838 1008.93 167.443 1007.5 167.443C1006.09 167.443 1005.01 166.838 1004.26 165.628C1003.51 164.418 1003.14 162.669 1003.14 160.383C1003.14 158.109 1003.51 156.367 1004.26 155.157C1005.01 153.947 1006.09 153.342 1007.5 153.342ZM1004.56 160.383C1004.56 162.005 1004.71 163.274 1005 164.192L1009.44 155.357C1008.97 154.732 1008.33 154.419 1007.5 154.419C1006.58 154.419 1005.86 154.911 1005.34 155.895C1004.82 156.866 1004.56 158.362 1004.56 160.383ZM1007.5 166.346C1008.43 166.346 1009.16 165.86 1009.68 164.89C1010.2 163.906 1010.46 162.404 1010.46 160.383C1010.46 158.667 1010.29 157.338 1009.96 156.394L1005.52 165.309C1006 166 1006.66 166.346 1007.5 166.346Z" fill="url(#paint86_linear_122_130)"/>
<path d="M1008.7 188.979H1011.64V190.036H1004.02V188.979H1007.42V177.771L1004.18 179.705L1003.62 178.808L1007.62 176.335H1008.7V188.979Z" fill="url(#paint87_linear_122_130)"/>
<path d="M1007.5 198.928C1008.93 198.928 1010.01 199.533 1010.74 200.743C1011.49 201.94 1011.86 203.681 1011.86 205.968C1011.86 208.255 1011.49 210.003 1010.74 211.213C1010.01 212.423 1008.93 213.028 1007.5 213.028C1006.09 213.028 1005.01 212.423 1004.26 211.213C1003.51 210.003 1003.14 208.255 1003.14 205.968C1003.14 203.695 1003.51 201.953 1004.26 200.743C1005.01 199.533 1006.09 198.928 1007.5 198.928ZM1004.56 205.968C1004.56 207.59 1004.71 208.86 1005 209.777L1009.44 200.942C1008.97 200.317 1008.33 200.005 1007.5 200.005C1006.58 200.005 1005.86 200.497 1005.34 201.481C1004.82 202.451 1004.56 203.947 1004.56 205.968ZM1007.5 211.931C1008.43 211.931 1009.16 211.446 1009.68 210.475C1010.2 209.492 1010.46 207.989 1010.46 205.968C1010.46 204.253 1010.29 202.923 1009.96 201.979L1005.52 210.894C1006 211.586 1006.66 211.931 1007.5 211.931Z" fill="url(#paint88_linear_122_130)"/>
<path d="M1044.64 -6.2072C1046.07 -6.2072 1047.15 -5.60224 1047.88 -4.39232C1048.63 -3.1957 1049 -1.45395 1049 0.832928C1049 3.11981 1048.63 4.86821 1047.88 6.07812C1047.15 7.28804 1046.07 7.893 1044.64 7.893C1043.23 7.893 1042.15 7.28804 1041.4 6.07812C1040.65 4.86821 1040.28 3.11981 1040.28 0.832928C1040.28 -1.44065 1040.65 -3.1824 1041.4 -4.39232C1042.15 -5.60224 1043.23 -6.2072 1044.64 -6.2072ZM1041.7 0.832928C1041.7 2.45502 1041.85 3.72477 1042.14 4.64218L1046.58 -4.19288C1046.11 -4.81779 1045.47 -5.13024 1044.64 -5.13024C1043.72 -5.13024 1043 -4.63829 1042.48 -3.6544C1041.96 -2.68381 1041.7 -1.18803 1041.7 0.832928ZM1044.64 6.7961C1045.57 6.7961 1046.3 6.3108 1046.82 5.34021C1047.34 4.35632 1047.6 2.85389 1047.6 0.832928C1047.6 -0.88223 1047.43 -2.21181 1047.1 -3.15581L1042.66 5.75902C1043.14 6.4504 1043.8 6.7961 1044.64 6.7961Z" fill="url(#paint89_linear_122_130)"/>
<path d="M1045.84 29.4293H1048.78V30.4864H1041.16V29.4293H1044.56V18.221L1041.32 20.1555L1040.76 19.2581L1044.76 16.785H1045.84V29.4293Z" fill="url(#paint90_linear_122_130)"/>
<path d="M1045.84 52.2221H1048.78V53.2792H1041.16V52.2221H1044.56V41.0138L1041.32 42.9483L1040.76 42.0509L1044.76 39.5778H1045.84V52.2221Z" fill="url(#paint91_linear_122_130)"/>
<path d="M1044.64 62.1712C1046.07 62.1712 1047.15 62.7762 1047.88 63.9861C1048.63 65.1827 1049 66.9245 1049 69.2113C1049 71.4982 1048.63 73.2466 1047.88 74.4565C1047.15 75.6664 1046.07 76.2714 1044.64 76.2714C1043.23 76.2714 1042.15 75.6664 1041.4 74.4565C1040.65 73.2466 1040.28 71.4982 1040.28 69.2113C1040.28 66.9378 1040.65 65.196 1041.4 63.9861C1042.15 62.7762 1043.23 62.1712 1044.64 62.1712ZM1041.7 69.2113C1041.7 70.8334 1041.85 72.1032 1042.14 73.0206L1046.58 64.1855C1046.11 63.5606 1045.47 63.2482 1044.64 63.2482C1043.72 63.2482 1043 63.7401 1042.48 64.724C1041.96 65.6946 1041.7 67.1904 1041.7 69.2113ZM1044.64 75.1745C1045.57 75.1745 1046.3 74.6892 1046.82 73.7186C1047.34 72.7347 1047.6 71.2323 1047.6 69.2113C1047.6 67.4962 1047.43 66.1666 1047.1 65.2226L1042.66 74.1374C1043.14 74.8288 1043.8 75.1745 1044.64 75.1745Z" fill="url(#paint92_linear_122_130)"/>
<path d="M1044.64 84.964C1046.07 84.964 1047.15 85.569 1047.88 86.7789C1048.63 87.9755 1049 89.7173 1049 92.0041C1049 94.291 1048.63 96.0394 1047.88 97.2493C1047.15 98.4593 1046.07 99.0642 1044.64 99.0642C1043.23 99.0642 1042.15 98.4593 1041.4 97.2493C1040.65 96.0394 1040.28 94.291 1040.28 92.0041C1040.28 89.7306 1040.65 87.9888 1041.4 86.7789C1042.15 85.569 1043.23 84.964 1044.64 84.964ZM1041.7 92.0041C1041.7 93.6262 1041.85 94.896 1042.14 95.8134L1046.58 86.9783C1046.11 86.3534 1045.47 86.041 1044.64 86.041C1043.72 86.041 1043 86.5329 1042.48 87.5168C1041.96 88.4874 1041.7 89.9832 1041.7 92.0041ZM1044.64 97.9673C1045.57 97.9673 1046.3 97.482 1046.82 96.5114C1047.34 95.5275 1047.6 94.0251 1047.6 92.0041C1047.6 90.289 1047.43 88.9594 1047.1 88.0154L1042.66 96.9302C1043.14 97.6216 1043.8 97.9673 1044.64 97.9673Z" fill="url(#paint93_linear_122_130)"/>
</g>
</g>
<defs>
<filter id="filter0_f_122_130" x="-489.19" y="-715.19" width="2141.38" height="1500.38" filterUnits="userSpaceOnUse" color-interpolation-filters="sRGB">
<feFlood flood-opacity="0" result="BackgroundImageFix"/>
<feBlend mode="normal" in="SourceGraphic" in2="BackgroundImageFix" result="shape"/>
<feGaussianBlur stdDeviation="200.095" result="effect1_foregroundBlur_122_130"/>
</filter>
<linearGradient id="paint0_linear_122_130" x1="121.5" y1="271" x2="121.5" y2="582.381" gradientUnits="userSpaceOnUse">
<stop stop-color="#F7DD43"/>
<stop offset="1" stop-color="#F7DD43" stop-opacity="0"/>
</linearGradient>
<linearGradient id="paint1_linear_122_130" x1="121.5" y1="271" x2="121.5" y2="582.381" gradientUnits="userSpaceOnUse">
<stop stop-color="#F7DD43"/>
<stop offset="1" stop-color="#F7DD43" stop-opacity="0"/>
</linearGradient>
<linearGradient id="paint2_linear_122_130" x1="121.5" y1="271" x2="121.5" y2="582.381" gradientUnits="userSpaceOnUse">
<stop stop-color="#F7DD43"/>
<stop offset="1" stop-color="#F7DD43" stop-opacity="0"/>
</linearGradient>
<linearGradient id="paint3_linear_122_130" x1="121.5" y1="271" x2="121.5" y2="582.381" gradientUnits="userSpaceOnUse">
<stop stop-color="#F7DD43"/>
<stop offset="1" stop-color="#F7DD43" stop-opacity="0"/>
</linearGradient>
<linearGradient id="paint4_linear_122_130" x1="121.5" y1="271" x2="121.5" y2="582.381" gradientUnits="userSpaceOnUse">
<stop stop-color="#F7DD43"/>
<stop offset="1" stop-color="#F7DD43" stop-opacity="0"/>
</linearGradient>
<linearGradient id="paint5_linear_122_130" x1="121.5" y1="271" x2="121.5" y2="582.381" gradientUnits="userSpaceOnUse">
<stop stop-color="#F7DD43"/>
<stop offset="1" stop-color="#F7DD43" stop-opacity="0"/>
</linearGradient>
<linearGradient id="paint6_linear_122_130" x1="121.5" y1="271" x2="121.5" y2="582.381" gradientUnits="userSpaceOnUse">
<stop stop-color="#F7DD43"/>
<stop offset="1" stop-color="#F7DD43" stop-opacity="0"/>
</linearGradient>
<linearGradient id="paint7_linear_122_130" x1="121.5" y1="271" x2="121.5" y2="582.381" gradientUnits="userSpaceOnUse">
<stop stop-color="#F7DD43"/>
<stop offset="1" stop-color="#F7DD43" stop-opacity="0"/>
</linearGradient>
<linearGradient id="paint8_linear_122_130" x1="121.5" y1="271" x2="121.5" y2="582.381" gradientUnits="userSpaceOnUse">
<stop stop-color="#F7DD43"/>
<stop offset="1" stop-color="#F7DD43" stop-opacity="0"/>
</linearGradient>
<linearGradient id="paint9_linear_122_130" x1="121.5" y1="271" x2="121.5" y2="582.381" gradientUnits="userSpaceOnUse">
<stop stop-color="#F7DD43"/>
<stop offset="1" stop-color="#F7DD43" stop-opacity="0"/>
</linearGradient>
<linearGradient id="paint10_linear_122_130" x1="121.5" y1="271" x2="121.5" y2="582.381" gradientUnits="userSpaceOnUse">
<stop stop-color="#F7DD43"/>
<stop offset="1" stop-color="#F7DD43" stop-opacity="0"/>
</linearGradient>
<linearGradient id="paint11_linear_122_130" x1="121.5" y1="271" x2="121.5" y2="582.381" gradientUnits="userSpaceOnUse">
<stop stop-color="#F7DD43"/>
<stop offset="1" stop-color="#F7DD43" stop-opacity="0"/>
</linearGradient>
<linearGradient id="paint12_linear_122_130" x1="121.5" y1="271" x2="121.5" y2="582.381" gradientUnits="userSpaceOnUse">
<stop stop-color="#F7DD43"/>
<stop offset="1" stop-color="#F7DD43" stop-opacity="0"/>
</linearGradient>
<linearGradient id="paint13_linear_122_130" x1="121.5" y1="271" x2="121.5" y2="582.381" gradientUnits="userSpaceOnUse">
<stop stop-color="#F7DD43"/>
<stop offset="1" stop-color="#F7DD43" stop-opacity="0"/>
</linearGradient>
<linearGradient id="paint14_linear_122_130" x1="121.5" y1="271" x2="121.5" y2="582.381" gradientUnits="userSpaceOnUse">
<stop stop-color="#F7DD43"/>
<stop offset="1" stop-color="#F7DD43" stop-opacity="0"/>
</linearGradient>
<linearGradient id="paint15_linear_122_130" x1="121.5" y1="271" x2="121.5" y2="582.381" gradientUnits="userSpaceOnUse">
<stop stop-color="#F7DD43"/>
<stop offset="1" stop-color="#F7DD43" stop-opacity="0"/>
</linearGradient>
<linearGradient id="paint16_linear_122_130" x1="121.5" y1="271" x2="121.5" y2="582.381" gradientUnits="userSpaceOnUse">
<stop stop-color="#F7DD43"/>
<stop offset="1" stop-color="#F7DD43" stop-opacity="0"/>
</linearGradient>
<linearGradient id="paint17_linear_122_130" x1="121.5" y1="271" x2="121.5" y2="582.381" gradientUnits="userSpaceOnUse">
<stop stop-color="#F7DD43"/>
<stop offset="1" stop-color="#F7DD43" stop-opacity="0"/>
</linearGradient>
<linearGradient id="paint18_linear_122_130" x1="121.5" y1="271" x2="121.5" y2="582.381" gradientUnits="userSpaceOnUse">
<stop stop-color="#F7DD43"/>
<stop offset="1" stop-color="#F7DD43" stop-opacity="0"/>
</linearGradient>
<linearGradient id="paint19_linear_122_130" x1="121.5" y1="271" x2="121.5" y2="582.381" gradientUnits="userSpaceOnUse">
<stop stop-color="#F7DD43"/>
<stop offset="1" stop-color="#F7DD43" stop-opacity="0"/>
</linearGradient>
<linearGradient id="paint20_linear_122_130" x1="121.5" y1="271" x2="121.5" y2="582.381" gradientUnits="userSpaceOnUse">
<stop stop-color="#F7DD43"/>
<stop offset="1" stop-color="#F7DD43" stop-opacity="0"/>
</linearGradient>
<linearGradient id="paint21_linear_122_130" x1="121.5" y1="271" x2="121.5" y2="582.381" gradientUnits="userSpaceOnUse">
<stop stop-color="#F7DD43"/>
<stop offset="1" stop-color="#F7DD43" stop-opacity="0"/>
</linearGradient>
<linearGradient id="paint22_linear_122_130" x1="121.5" y1="271" x2="121.5" y2="582.381" gradientUnits="userSpaceOnUse">
<stop stop-color="#F7DD43"/>
<stop offset="1" stop-color="#F7DD43" stop-opacity="0"/>
</linearGradient>
<linearGradient id="paint23_linear_122_130" x1="121.5" y1="271" x2="121.5" y2="582.381" gradientUnits="userSpaceOnUse">
<stop stop-color="#F7DD43"/>
<stop offset="1" stop-color="#F7DD43" stop-opacity="0"/>
</linearGradient>
<linearGradient id="paint24_linear_122_130" x1="121.5" y1="271" x2="121.5" y2="582.381" gradientUnits="userSpaceOnUse">
<stop stop-color="#F7DD43"/>
<stop offset="1" stop-color="#F7DD43" stop-opacity="0"/>
</linearGradient>
<linearGradient id="paint25_linear_122_130" x1="121.5" y1="271" x2="121.5" y2="582.381" gradientUnits="userSpaceOnUse">
<stop stop-color="#F7DD43"/>
<stop offset="1" stop-color="#F7DD43" stop-opacity="0"/>
</linearGradient>
<linearGradient id="paint26_linear_122_130" x1="121.5" y1="271" x2="121.5" y2="582.381" gradientUnits="userSpaceOnUse">
<stop stop-color="#F7DD43"/>
<stop offset="1" stop-color="#F7DD43" stop-opacity="0"/>
</linearGradient>
<linearGradient id="paint27_linear_122_130" x1="121.5" y1="271" x2="121.5" y2="582.381" gradientUnits="userSpaceOnUse">
<stop stop-color="#F7DD43"/>
<stop offset="1" stop-color="#F7DD43" stop-opacity="0"/>
</linearGradient>
<linearGradient id="paint28_linear_122_130" x1="121.5" y1="271" x2="121.5" y2="582.381" gradientUnits="userSpaceOnUse">
<stop stop-color="#F7DD43"/>
<stop offset="1" stop-color="#F7DD43" stop-opacity="0"/>
</linearGradient>
<linearGradient id="paint29_linear_122_130" x1="121.5" y1="271" x2="121.5" y2="582.381" gradientUnits="userSpaceOnUse">
<stop stop-color="#F7DD43"/>
<stop offset="1" stop-color="#F7DD43" stop-opacity="0"/>
</linearGradient>
<linearGradient id="paint30_linear_122_130" x1="121.5" y1="271" x2="121.5" y2="582.381" gradientUnits="userSpaceOnUse">
<stop stop-color="#F7DD43"/>
<stop offset="1" stop-color="#F7DD43" stop-opacity="0"/>
</linearGradient>
<linearGradient id="paint31_linear_122_130" x1="121.5" y1="271" x2="121.5" y2="582.381" gradientUnits="userSpaceOnUse">
<stop stop-color="#F7DD43"/>
<stop offset="1" stop-color="#F7DD43" stop-opacity="0"/>
</linearGradient>
<linearGradient id="paint32_linear_122_130" x1="121.5" y1="271" x2="121.5" y2="582.381" gradientUnits="userSpaceOnUse">
<stop stop-color="#F7DD43"/>
<stop offset="1" stop-color="#F7DD43" stop-opacity="0"/>
</linearGradient>
<linearGradient id="paint33_linear_122_130" x1="121.5" y1="271" x2="121.5" y2="582.381" gradientUnits="userSpaceOnUse">
<stop stop-color="#F7DD43"/>
<stop offset="1" stop-color="#F7DD43" stop-opacity="0"/>
</linearGradient>
<linearGradient id="paint34_linear_122_130" x1="121.5" y1="271" x2="121.5" y2="582.381" gradientUnits="userSpaceOnUse">
<stop stop-color="#F7DD43"/>
<stop offset="1" stop-color="#F7DD43" stop-opacity="0"/>
</linearGradient>
<linearGradient id="paint35_linear_122_130" x1="121.5" y1="271" x2="121.5" y2="582.381" gradientUnits="userSpaceOnUse">
<stop stop-color="#F7DD43"/>
<stop offset="1" stop-color="#F7DD43" stop-opacity="0"/>
</linearGradient>
<linearGradient id="paint36_linear_122_130" x1="121.5" y1="271" x2="121.5" y2="582.381" gradientUnits="userSpaceOnUse">
<stop stop-color="#F7DD43"/>
<stop offset="1" stop-color="#F7DD43" stop-opacity="0"/>
</linearGradient>
<linearGradient id="paint37_linear_122_130" x1="121.5" y1="271" x2="121.5" y2="582.381" gradientUnits="userSpaceOnUse">
<stop stop-color="#F7DD43"/>
<stop offset="1" stop-color="#F7DD43" stop-opacity="0"/>
</linearGradient>
<linearGradient id="paint38_linear_122_130" x1="121.5" y1="271" x2="121.5" y2="582.381" gradientUnits="userSpaceOnUse">
<stop stop-color="#F7DD43"/>
<stop offset="1" stop-color="#F7DD43" stop-opacity="0"/>
</linearGradient>
<linearGradient id="paint39_linear_122_130" x1="121.5" y1="271" x2="121.5" y2="582.381" gradientUnits="userSpaceOnUse">
<stop stop-color="#F7DD43"/>
<stop offset="1" stop-color="#F7DD43" stop-opacity="0"/>
</linearGradient>
<linearGradient id="paint40_linear_122_130" x1="121.5" y1="271" x2="121.5" y2="582.381" gradientUnits="userSpaceOnUse">
<stop stop-color="#F7DD43"/>
<stop offset="1" stop-color="#F7DD43" stop-opacity="0"/>
</linearGradient>
<linearGradient id="paint41_linear_122_130" x1="121.5" y1="271" x2="121.5" y2="582.381" gradientUnits="userSpaceOnUse">
<stop stop-color="#F7DD43"/>
<stop offset="1" stop-color="#F7DD43" stop-opacity="0"/>
</linearGradient>
<linearGradient id="paint42_linear_122_130" x1="121.5" y1="271" x2="121.5" y2="582.381" gradientUnits="userSpaceOnUse">
<stop stop-color="#F7DD43"/>
<stop offset="1" stop-color="#F7DD43" stop-opacity="0"/>
</linearGradient>
<linearGradient id="paint43_linear_122_130" x1="121.5" y1="271" x2="121.5" y2="582.381" gradientUnits="userSpaceOnUse">
<stop stop-color="#F7DD43"/>
<stop offset="1" stop-color="#F7DD43" stop-opacity="0"/>
</linearGradient>
<linearGradient id="paint44_linear_122_130" x1="121.5" y1="271" x2="121.5" y2="582.381" gradientUnits="userSpaceOnUse">
<stop stop-color="#F7DD43"/>
<stop offset="1" stop-color="#F7DD43" stop-opacity="0"/>
</linearGradient>
<linearGradient id="paint45_linear_122_130" x1="121.5" y1="271" x2="121.5" y2="582.381" gradientUnits="userSpaceOnUse">
<stop stop-color="#F7DD43"/>
<stop offset="1" stop-color="#F7DD43" stop-opacity="0"/>
</linearGradient>
<linearGradient id="paint46_linear_122_130" x1="121.5" y1="271" x2="121.5" y2="582.381" gradientUnits="userSpaceOnUse">
<stop stop-color="#F7DD43"/>
<stop offset="1" stop-color="#F7DD43" stop-opacity="0"/>
</linearGradient>
<linearGradient id="paint47_linear_122_130" x1="1007.5" y1="-29" x2="1007.5" y2="269.818" gradientUnits="userSpaceOnUse">
<stop stop-color="#F7DD43"/>
<stop offset="1" stop-color="#F7DD43" stop-opacity="0"/>
</linearGradient>
<linearGradient id="paint48_linear_122_130" x1="1007.5" y1="-29" x2="1007.5" y2="269.818" gradientUnits="userSpaceOnUse">
<stop stop-color="#F7DD43"/>
<stop offset="1" stop-color="#F7DD43" stop-opacity="0"/>
</linearGradient>
<linearGradient id="paint49_linear_122_130" x1="1007.5" y1="-29" x2="1007.5" y2="269.818" gradientUnits="userSpaceOnUse">
<stop stop-color="#F7DD43"/>
<stop offset="1" stop-color="#F7DD43" stop-opacity="0"/>
</linearGradient>
<linearGradient id="paint50_linear_122_130" x1="1007.5" y1="-29" x2="1007.5" y2="269.818" gradientUnits="userSpaceOnUse">
<stop stop-color="#F7DD43"/>
<stop offset="1" stop-color="#F7DD43" stop-opacity="0"/>
</linearGradient>
<linearGradient id="paint51_linear_122_130" x1="1007.5" y1="-29" x2="1007.5" y2="269.818" gradientUnits="userSpaceOnUse">
<stop stop-color="#F7DD43"/>
<stop offset="1" stop-color="#F7DD43" stop-opacity="0"/>
</linearGradient>
<linearGradient id="paint52_linear_122_130" x1="1007.5" y1="-29" x2="1007.5" y2="269.818" gradientUnits="userSpaceOnUse">
<stop stop-color="#F7DD43"/>
<stop offset="1" stop-color="#F7DD43" stop-opacity="0"/>
</linearGradient>
<linearGradient id="paint53_linear_122_130" x1="1007.5" y1="-29" x2="1007.5" y2="269.818" gradientUnits="userSpaceOnUse">
<stop stop-color="#F7DD43"/>
<stop offset="1" stop-color="#F7DD43" stop-opacity="0"/>
</linearGradient>
<linearGradient id="paint54_linear_122_130" x1="1007.5" y1="-29" x2="1007.5" y2="269.818" gradientUnits="userSpaceOnUse">
<stop stop-color="#F7DD43"/>
<stop offset="1" stop-color="#F7DD43" stop-opacity="0"/>
</linearGradient>
<linearGradient id="paint55_linear_122_130" x1="1007.5" y1="-29" x2="1007.5" y2="269.818" gradientUnits="userSpaceOnUse">
<stop stop-color="#F7DD43"/>
<stop offset="1" stop-color="#F7DD43" stop-opacity="0"/>
</linearGradient>
<linearGradient id="paint56_linear_122_130" x1="1007.5" y1="-29" x2="1007.5" y2="269.818" gradientUnits="userSpaceOnUse">
<stop stop-color="#F7DD43"/>
<stop offset="1" stop-color="#F7DD43" stop-opacity="0"/>
</linearGradient>
<linearGradient id="paint57_linear_122_130" x1="1007.5" y1="-29" x2="1007.5" y2="269.818" gradientUnits="userSpaceOnUse">
<stop stop-color="#F7DD43"/>
<stop offset="1" stop-color="#F7DD43" stop-opacity="0"/>
</linearGradient>
<linearGradient id="paint58_linear_122_130" x1="1007.5" y1="-29" x2="1007.5" y2="269.818" gradientUnits="userSpaceOnUse">
<stop stop-color="#F7DD43"/>
<stop offset="1" stop-color="#F7DD43" stop-opacity="0"/>
</linearGradient>
<linearGradient id="paint59_linear_122_130" x1="1007.5" y1="-29" x2="1007.5" y2="269.818" gradientUnits="userSpaceOnUse">
<stop stop-color="#F7DD43"/>
<stop offset="1" stop-color="#F7DD43" stop-opacity="0"/>
</linearGradient>
<linearGradient id="paint60_linear_122_130" x1="1007.5" y1="-29" x2="1007.5" y2="269.818" gradientUnits="userSpaceOnUse">
<stop stop-color="#F7DD43"/>
<stop offset="1" stop-color="#F7DD43" stop-opacity="0"/>
</linearGradient>
<linearGradient id="paint61_linear_122_130" x1="1007.5" y1="-29" x2="1007.5" y2="269.818" gradientUnits="userSpaceOnUse">
<stop stop-color="#F7DD43"/>
<stop offset="1" stop-color="#F7DD43" stop-opacity="0"/>
</linearGradient>
<linearGradient id="paint62_linear_122_130" x1="1007.5" y1="-29" x2="1007.5" y2="269.818" gradientUnits="userSpaceOnUse">
<stop stop-color="#F7DD43"/>
<stop offset="1" stop-color="#F7DD43" stop-opacity="0"/>
</linearGradient>
<linearGradient id="paint63_linear_122_130" x1="1007.5" y1="-29" x2="1007.5" y2="269.818" gradientUnits="userSpaceOnUse">
<stop stop-color="#F7DD43"/>
<stop offset="1" stop-color="#F7DD43" stop-opacity="0"/>
</linearGradient>
<linearGradient id="paint64_linear_122_130" x1="1007.5" y1="-29" x2="1007.5" y2="269.818" gradientUnits="userSpaceOnUse">
<stop stop-color="#F7DD43"/>
<stop offset="1" stop-color="#F7DD43" stop-opacity="0"/>
</linearGradient>
<linearGradient id="paint65_linear_122_130" x1="1007.5" y1="-29" x2="1007.5" y2="269.818" gradientUnits="userSpaceOnUse">
<stop stop-color="#F7DD43"/>
<stop offset="1" stop-color="#F7DD43" stop-opacity="0"/>
</linearGradient>
<linearGradient id="paint66_linear_122_130" x1="1007.5" y1="-29" x2="1007.5" y2="269.818" gradientUnits="userSpaceOnUse">
<stop stop-color="#F7DD43"/>
<stop offset="1" stop-color="#F7DD43" stop-opacity="0"/>
</linearGradient>
<linearGradient id="paint67_linear_122_130" x1="1007.5" y1="-29" x2="1007.5" y2="269.818" gradientUnits="userSpaceOnUse">
<stop stop-color="#F7DD43"/>
<stop offset="1" stop-color="#F7DD43" stop-opacity="0"/>
</linearGradient>
<linearGradient id="paint68_linear_122_130" x1="1007.5" y1="-29" x2="1007.5" y2="269.818" gradientUnits="userSpaceOnUse">
<stop stop-color="#F7DD43"/>
<stop offset="1" stop-color="#F7DD43" stop-opacity="0"/>
</linearGradient>
<linearGradient id="paint69_linear_122_130" x1="1007.5" y1="-29" x2="1007.5" y2="269.818" gradientUnits="userSpaceOnUse">
<stop stop-color="#F7DD43"/>
<stop offset="1" stop-color="#F7DD43" stop-opacity="0"/>
</linearGradient>
<linearGradient id="paint70_linear_122_130" x1="1007.5" y1="-29" x2="1007.5" y2="269.818" gradientUnits="userSpaceOnUse">
<stop stop-color="#F7DD43"/>
<stop offset="1" stop-color="#F7DD43" stop-opacity="0"/>
</linearGradient>
<linearGradient id="paint71_linear_122_130" x1="1007.5" y1="-29" x2="1007.5" y2="269.818" gradientUnits="userSpaceOnUse">
<stop stop-color="#F7DD43"/>
<stop offset="1" stop-color="#F7DD43" stop-opacity="0"/>
</linearGradient>
<linearGradient id="paint72_linear_122_130" x1="1007.5" y1="-29" x2="1007.5" y2="269.818" gradientUnits="userSpaceOnUse">
<stop stop-color="#F7DD43"/>
<stop offset="1" stop-color="#F7DD43" stop-opacity="0"/>
</linearGradient>
<linearGradient id="paint73_linear_122_130" x1="1007.5" y1="-29" x2="1007.5" y2="269.818" gradientUnits="userSpaceOnUse">
<stop stop-color="#F7DD43"/>
<stop offset="1" stop-color="#F7DD43" stop-opacity="0"/>
</linearGradient>
<linearGradient id="paint74_linear_122_130" x1="1007.5" y1="-29" x2="1007.5" y2="269.818" gradientUnits="userSpaceOnUse">
<stop stop-color="#F7DD43"/>
<stop offset="1" stop-color="#F7DD43" stop-opacity="0"/>
</linearGradient>
<linearGradient id="paint75_linear_122_130" x1="1007.5" y1="-29" x2="1007.5" y2="269.818" gradientUnits="userSpaceOnUse">
<stop stop-color="#F7DD43"/>
<stop offset="1" stop-color="#F7DD43" stop-opacity="0"/>
</linearGradient>
<linearGradient id="paint76_linear_122_130" x1="1007.5" y1="-29" x2="1007.5" y2="269.818" gradientUnits="userSpaceOnUse">
<stop stop-color="#F7DD43"/>
<stop offset="1" stop-color="#F7DD43" stop-opacity="0"/>
</linearGradient>
<linearGradient id="paint77_linear_122_130" x1="1007.5" y1="-29" x2="1007.5" y2="269.818" gradientUnits="userSpaceOnUse">
<stop stop-color="#F7DD43"/>
<stop offset="1" stop-color="#F7DD43" stop-opacity="0"/>
</linearGradient>
<linearGradient id="paint78_linear_122_130" x1="1007.5" y1="-29" x2="1007.5" y2="269.818" gradientUnits="userSpaceOnUse">
<stop stop-color="#F7DD43"/>
<stop offset="1" stop-color="#F7DD43" stop-opacity="0"/>
</linearGradient>
<linearGradient id="paint79_linear_122_130" x1="1007.5" y1="-29" x2="1007.5" y2="269.818" gradientUnits="userSpaceOnUse">
<stop stop-color="#F7DD43"/>
<stop offset="1" stop-color="#F7DD43" stop-opacity="0"/>
</linearGradient>
<linearGradient id="paint80_linear_122_130" x1="1007.5" y1="-29" x2="1007.5" y2="269.818" gradientUnits="userSpaceOnUse">
<stop stop-color="#F7DD43"/>
<stop offset="1" stop-color="#F7DD43" stop-opacity="0"/>
</linearGradient>
<linearGradient id="paint81_linear_122_130" x1="1007.5" y1="-29" x2="1007.5" y2="269.818" gradientUnits="userSpaceOnUse">
<stop stop-color="#F7DD43"/>
<stop offset="1" stop-color="#F7DD43" stop-opacity="0"/>
</linearGradient>
<linearGradient id="paint82_linear_122_130" x1="1007.5" y1="-29" x2="1007.5" y2="269.818" gradientUnits="userSpaceOnUse">
<stop stop-color="#F7DD43"/>
<stop offset="1" stop-color="#F7DD43" stop-opacity="0"/>
</linearGradient>
<linearGradient id="paint83_linear_122_130" x1="1007.5" y1="-29" x2="1007.5" y2="269.818" gradientUnits="userSpaceOnUse">
<stop stop-color="#F7DD43"/>
<stop offset="1" stop-color="#F7DD43" stop-opacity="0"/>
</linearGradient>
<linearGradient id="paint84_linear_122_130" x1="1007.5" y1="-29" x2="1007.5" y2="269.818" gradientUnits="userSpaceOnUse">
<stop stop-color="#F7DD43"/>
<stop offset="1" stop-color="#F7DD43" stop-opacity="0"/>
</linearGradient>
<linearGradient id="paint85_linear_122_130" x1="1007.5" y1="-29" x2="1007.5" y2="269.818" gradientUnits="userSpaceOnUse">
<stop stop-color="#F7DD43"/>
<stop offset="1" stop-color="#F7DD43" stop-opacity="0"/>
</linearGradient>
<linearGradient id="paint86_linear_122_130" x1="1007.5" y1="-29" x2="1007.5" y2="269.818" gradientUnits="userSpaceOnUse">
<stop stop-color="#F7DD43"/>
<stop offset="1" stop-color="#F7DD43" stop-opacity="0"/>
</linearGradient>
<linearGradient id="paint87_linear_122_130" x1="1007.5" y1="-29" x2="1007.5" y2="269.818" gradientUnits="userSpaceOnUse">
<stop stop-color="#F7DD43"/>
<stop offset="1" stop-color="#F7DD43" stop-opacity="0"/>
</linearGradient>
<linearGradient id="paint88_linear_122_130" x1="1007.5" y1="-29" x2="1007.5" y2="269.818" gradientUnits="userSpaceOnUse">
<stop stop-color="#F7DD43"/>
<stop offset="1" stop-color="#F7DD43" stop-opacity="0"/>
</linearGradient>
<linearGradient id="paint89_linear_122_130" x1="1007.5" y1="-29" x2="1007.5" y2="269.818" gradientUnits="userSpaceOnUse">
<stop stop-color="#F7DD43"/>
<stop offset="1" stop-color="#F7DD43" stop-opacity="0"/>
</linearGradient>
<linearGradient id="paint90_linear_122_130" x1="1007.5" y1="-29" x2="1007.5" y2="269.818" gradientUnits="userSpaceOnUse">
<stop stop-color="#F7DD43"/>
<stop offset="1" stop-color="#F7DD43" stop-opacity="0"/>
</linearGradient>
<linearGradient id="paint91_linear_122_130" x1="1007.5" y1="-29" x2="1007.5" y2="269.818" gradientUnits="userSpaceOnUse">
<stop stop-color="#F7DD43"/>
<stop offset="1" stop-color="#F7DD43" stop-opacity="0"/>
</linearGradient>
<linearGradient id="paint92_linear_122_130" x1="1007.5" y1="-29" x2="1007.5" y2="269.818" gradientUnits="userSpaceOnUse">
<stop stop-color="#F7DD43"/>
<stop offset="1" stop-color="#F7DD43" stop-opacity="0"/>
</linearGradient>
<linearGradient id="paint93_linear_122_130" x1="1007.5" y1="-29" x2="1007.5" y2="269.818" gradientUnits="userSpaceOnUse">
<stop stop-color="#F7DD43"/>
<stop offset="1" stop-color="#F7DD43" stop-opacity="0"/>
</linearGradient>
<clipPath id="clip0_122_130">
<rect width="1024" height="753" fill="white"/>
</clipPath>
</defs>
</svg>